<mxfile host="Electron" agent="Mozilla/5.0 (Windows NT 10.0; Win64; x64) AppleWebKit/537.36 (KHTML, like Gecko) draw.io/24.7.17 Chrome/128.0.6613.36 Electron/32.0.1 Safari/537.36" version="24.7.17">
  <diagram name="Page-1" id="nk33O3myFzExoFOTdXr2">
    <mxGraphModel dx="875" dy="524" grid="1" gridSize="10" guides="1" tooltips="1" connect="1" arrows="1" fold="1" page="1" pageScale="1" pageWidth="850" pageHeight="1100" math="0" shadow="0">
      <root>
        <mxCell id="0" />
        <mxCell id="1" parent="0" />
        <mxCell id="1TI8qmT8zmZ3jhamWAwy-5" style="edgeStyle=orthogonalEdgeStyle;rounded=0;orthogonalLoop=1;jettySize=auto;html=1;" edge="1" parent="1" source="UBjv-P3hsI7ne-E2DAJY-2" target="1TI8qmT8zmZ3jhamWAwy-6">
          <mxGeometry relative="1" as="geometry">
            <mxPoint x="400" y="80" as="targetPoint" />
          </mxGeometry>
        </mxCell>
        <mxCell id="UBjv-P3hsI7ne-E2DAJY-2" value="START" style="rounded=1;whiteSpace=wrap;html=1;arcSize=50;" parent="1" vertex="1">
          <mxGeometry x="360" y="20" width="80" height="30" as="geometry" />
        </mxCell>
        <mxCell id="UBjv-P3hsI7ne-E2DAJY-3" value="END" style="rounded=1;whiteSpace=wrap;html=1;arcSize=50;" parent="1" vertex="1">
          <mxGeometry x="670" y="970" width="80" height="30" as="geometry" />
        </mxCell>
        <mxCell id="1TI8qmT8zmZ3jhamWAwy-9" style="edgeStyle=orthogonalEdgeStyle;rounded=0;orthogonalLoop=1;jettySize=auto;html=1;" edge="1" parent="1" source="1TI8qmT8zmZ3jhamWAwy-4" target="1TI8qmT8zmZ3jhamWAwy-10">
          <mxGeometry relative="1" as="geometry">
            <mxPoint x="400" y="290" as="targetPoint" />
            <Array as="points">
              <mxPoint x="400" y="270" />
              <mxPoint x="400" y="270" />
            </Array>
          </mxGeometry>
        </mxCell>
        <mxCell id="1TI8qmT8zmZ3jhamWAwy-21" value="จริง" style="edgeLabel;html=1;align=center;verticalAlign=middle;resizable=0;points=[];" vertex="1" connectable="0" parent="1TI8qmT8zmZ3jhamWAwy-9">
          <mxGeometry x="-0.0406" y="-2" relative="1" as="geometry">
            <mxPoint x="1" as="offset" />
          </mxGeometry>
        </mxCell>
        <mxCell id="1TI8qmT8zmZ3jhamWAwy-13" value="" style="edgeStyle=orthogonalEdgeStyle;rounded=0;orthogonalLoop=1;jettySize=auto;html=1;" edge="1" parent="1" source="1TI8qmT8zmZ3jhamWAwy-4" target="1TI8qmT8zmZ3jhamWAwy-12">
          <mxGeometry relative="1" as="geometry">
            <Array as="points">
              <mxPoint x="540" y="210" />
            </Array>
          </mxGeometry>
        </mxCell>
        <mxCell id="1TI8qmT8zmZ3jhamWAwy-22" value="เท็จ" style="edgeLabel;html=1;align=center;verticalAlign=middle;resizable=0;points=[];" vertex="1" connectable="0" parent="1TI8qmT8zmZ3jhamWAwy-13">
          <mxGeometry x="-0.3931" y="3" relative="1" as="geometry">
            <mxPoint y="2" as="offset" />
          </mxGeometry>
        </mxCell>
        <mxCell id="1TI8qmT8zmZ3jhamWAwy-4" value="if Bool&amp;nbsp;≠ 0" style="rhombus;whiteSpace=wrap;html=1;" vertex="1" parent="1">
          <mxGeometry x="360" y="170" width="80" height="80" as="geometry" />
        </mxCell>
        <mxCell id="1TI8qmT8zmZ3jhamWAwy-7" value="" style="edgeStyle=orthogonalEdgeStyle;rounded=0;orthogonalLoop=1;jettySize=auto;html=1;" edge="1" parent="1" source="1TI8qmT8zmZ3jhamWAwy-6" target="1TI8qmT8zmZ3jhamWAwy-4">
          <mxGeometry relative="1" as="geometry" />
        </mxCell>
        <mxCell id="1TI8qmT8zmZ3jhamWAwy-6" value="&quot;#ค่าของ Bool&quot;" style="shape=parallelogram;perimeter=parallelogramPerimeter;whiteSpace=wrap;html=1;fixedSize=1;" vertex="1" parent="1">
          <mxGeometry x="340" y="90" width="120" height="60" as="geometry" />
        </mxCell>
        <mxCell id="1TI8qmT8zmZ3jhamWAwy-38" style="edgeStyle=orthogonalEdgeStyle;rounded=0;orthogonalLoop=1;jettySize=auto;html=1;entryX=0;entryY=0.5;entryDx=0;entryDy=0;" edge="1" parent="1" source="1TI8qmT8zmZ3jhamWAwy-10" target="1TI8qmT8zmZ3jhamWAwy-35">
          <mxGeometry relative="1" as="geometry">
            <Array as="points">
              <mxPoint x="400" y="445" />
            </Array>
          </mxGeometry>
        </mxCell>
        <mxCell id="1TI8qmT8zmZ3jhamWAwy-10" value="&quot;ok&quot;" style="shape=parallelogram;perimeter=parallelogramPerimeter;whiteSpace=wrap;html=1;fixedSize=1;" vertex="1" parent="1">
          <mxGeometry x="362.5" y="360" width="75" height="30" as="geometry" />
        </mxCell>
        <mxCell id="1TI8qmT8zmZ3jhamWAwy-15" value="" style="edgeStyle=orthogonalEdgeStyle;rounded=0;orthogonalLoop=1;jettySize=auto;html=1;" edge="1" parent="1" source="1TI8qmT8zmZ3jhamWAwy-12" target="1TI8qmT8zmZ3jhamWAwy-14">
          <mxGeometry relative="1" as="geometry" />
        </mxCell>
        <mxCell id="1TI8qmT8zmZ3jhamWAwy-23" value="จริง" style="edgeLabel;html=1;align=center;verticalAlign=middle;resizable=0;points=[];" vertex="1" connectable="0" parent="1TI8qmT8zmZ3jhamWAwy-15">
          <mxGeometry x="-0.2345" y="-2" relative="1" as="geometry">
            <mxPoint x="1" as="offset" />
          </mxGeometry>
        </mxCell>
        <mxCell id="1TI8qmT8zmZ3jhamWAwy-36" value="" style="edgeStyle=orthogonalEdgeStyle;rounded=0;orthogonalLoop=1;jettySize=auto;html=1;" edge="1" parent="1" source="1TI8qmT8zmZ3jhamWAwy-12" target="1TI8qmT8zmZ3jhamWAwy-35">
          <mxGeometry relative="1" as="geometry" />
        </mxCell>
        <mxCell id="1TI8qmT8zmZ3jhamWAwy-40" value="เท็จ" style="edgeLabel;html=1;align=center;verticalAlign=middle;resizable=0;points=[];" vertex="1" connectable="0" parent="1TI8qmT8zmZ3jhamWAwy-36">
          <mxGeometry x="-0.7419" y="-1" relative="1" as="geometry">
            <mxPoint x="-3" y="-1" as="offset" />
          </mxGeometry>
        </mxCell>
        <mxCell id="1TI8qmT8zmZ3jhamWAwy-12" value="i &amp;lt;= 5" style="rhombus;whiteSpace=wrap;html=1;" vertex="1" parent="1">
          <mxGeometry x="500" y="250" width="80" height="80" as="geometry" />
        </mxCell>
        <mxCell id="1TI8qmT8zmZ3jhamWAwy-24" style="edgeStyle=orthogonalEdgeStyle;rounded=0;orthogonalLoop=1;jettySize=auto;html=1;entryX=0;entryY=0.5;entryDx=0;entryDy=0;" edge="1" parent="1" source="1TI8qmT8zmZ3jhamWAwy-14" target="1TI8qmT8zmZ3jhamWAwy-12">
          <mxGeometry relative="1" as="geometry">
            <Array as="points">
              <mxPoint x="460" y="390" />
              <mxPoint x="460" y="290" />
            </Array>
          </mxGeometry>
        </mxCell>
        <mxCell id="1TI8qmT8zmZ3jhamWAwy-14" value="&quot;not-okey- #i++&quot;" style="shape=parallelogram;perimeter=parallelogramPerimeter;whiteSpace=wrap;html=1;fixedSize=1;" vertex="1" parent="1">
          <mxGeometry x="480" y="380" width="120" height="30" as="geometry" />
        </mxCell>
        <mxCell id="1TI8qmT8zmZ3jhamWAwy-31" value="" style="edgeStyle=orthogonalEdgeStyle;rounded=0;orthogonalLoop=1;jettySize=auto;html=1;" edge="1" parent="1" source="1TI8qmT8zmZ3jhamWAwy-28" target="1TI8qmT8zmZ3jhamWAwy-30">
          <mxGeometry relative="1" as="geometry" />
        </mxCell>
        <mxCell id="1TI8qmT8zmZ3jhamWAwy-43" value="จริง" style="edgeLabel;html=1;align=center;verticalAlign=middle;resizable=0;points=[];" vertex="1" connectable="0" parent="1TI8qmT8zmZ3jhamWAwy-31">
          <mxGeometry x="-0.187" y="-2" relative="1" as="geometry">
            <mxPoint x="1" as="offset" />
          </mxGeometry>
        </mxCell>
        <mxCell id="1TI8qmT8zmZ3jhamWAwy-45" style="edgeStyle=orthogonalEdgeStyle;rounded=0;orthogonalLoop=1;jettySize=auto;html=1;" edge="1" parent="1" source="1TI8qmT8zmZ3jhamWAwy-28">
          <mxGeometry relative="1" as="geometry">
            <mxPoint x="710" y="970" as="targetPoint" />
          </mxGeometry>
        </mxCell>
        <mxCell id="1TI8qmT8zmZ3jhamWAwy-46" value="เท็จ" style="edgeLabel;html=1;align=center;verticalAlign=middle;resizable=0;points=[];" vertex="1" connectable="0" parent="1TI8qmT8zmZ3jhamWAwy-45">
          <mxGeometry x="-0.9008" y="5" relative="1" as="geometry">
            <mxPoint y="4" as="offset" />
          </mxGeometry>
        </mxCell>
        <mxCell id="1TI8qmT8zmZ3jhamWAwy-28" value="i = 3&lt;div&gt;ถ้า i &amp;lt; 10&lt;/div&gt;&lt;div&gt;i ++&lt;/div&gt;" style="rhombus;whiteSpace=wrap;html=1;" vertex="1" parent="1">
          <mxGeometry x="580" y="499" width="80" height="80" as="geometry" />
        </mxCell>
        <mxCell id="1TI8qmT8zmZ3jhamWAwy-33" value="" style="edgeStyle=orthogonalEdgeStyle;rounded=0;orthogonalLoop=1;jettySize=auto;html=1;" edge="1" parent="1" source="1TI8qmT8zmZ3jhamWAwy-30" target="1TI8qmT8zmZ3jhamWAwy-32">
          <mxGeometry relative="1" as="geometry" />
        </mxCell>
        <mxCell id="1TI8qmT8zmZ3jhamWAwy-47" value="จริง" style="edgeLabel;html=1;align=center;verticalAlign=middle;resizable=0;points=[];" vertex="1" connectable="0" parent="1TI8qmT8zmZ3jhamWAwy-33">
          <mxGeometry x="-0.1973" y="-3" relative="1" as="geometry">
            <mxPoint x="2" as="offset" />
          </mxGeometry>
        </mxCell>
        <mxCell id="1TI8qmT8zmZ3jhamWAwy-51" value="" style="edgeStyle=orthogonalEdgeStyle;rounded=0;orthogonalLoop=1;jettySize=auto;html=1;" edge="1" parent="1" source="1TI8qmT8zmZ3jhamWAwy-30" target="1TI8qmT8zmZ3jhamWAwy-50">
          <mxGeometry relative="1" as="geometry" />
        </mxCell>
        <mxCell id="1TI8qmT8zmZ3jhamWAwy-30" value="ถ้า i % 2 == ( 1 หรือ 2 )" style="rhombus;whiteSpace=wrap;html=1;" vertex="1" parent="1">
          <mxGeometry x="540" y="620" width="160" height="140" as="geometry" />
        </mxCell>
        <mxCell id="1TI8qmT8zmZ3jhamWAwy-52" style="edgeStyle=orthogonalEdgeStyle;rounded=0;orthogonalLoop=1;jettySize=auto;html=1;entryX=0.5;entryY=1;entryDx=0;entryDy=0;" edge="1" parent="1" source="1TI8qmT8zmZ3jhamWAwy-32" target="1TI8qmT8zmZ3jhamWAwy-50">
          <mxGeometry relative="1" as="geometry" />
        </mxCell>
        <mxCell id="1TI8qmT8zmZ3jhamWAwy-32" value="&quot;see see ha ha&quot;" style="shape=parallelogram;perimeter=parallelogramPerimeter;whiteSpace=wrap;html=1;fixedSize=1;" vertex="1" parent="1">
          <mxGeometry x="560" y="809" width="120" height="60" as="geometry" />
        </mxCell>
        <mxCell id="1TI8qmT8zmZ3jhamWAwy-37" value="" style="edgeStyle=orthogonalEdgeStyle;rounded=0;orthogonalLoop=1;jettySize=auto;html=1;" edge="1" parent="1" source="1TI8qmT8zmZ3jhamWAwy-35" target="1TI8qmT8zmZ3jhamWAwy-28">
          <mxGeometry relative="1" as="geometry" />
        </mxCell>
        <mxCell id="1TI8qmT8zmZ3jhamWAwy-35" value="" style="ellipse;whiteSpace=wrap;html=1;" vertex="1" parent="1">
          <mxGeometry x="605" y="430" width="30" height="30" as="geometry" />
        </mxCell>
        <mxCell id="1TI8qmT8zmZ3jhamWAwy-53" style="edgeStyle=orthogonalEdgeStyle;rounded=0;orthogonalLoop=1;jettySize=auto;html=1;entryX=0;entryY=0.5;entryDx=0;entryDy=0;" edge="1" parent="1" source="1TI8qmT8zmZ3jhamWAwy-50" target="1TI8qmT8zmZ3jhamWAwy-28">
          <mxGeometry relative="1" as="geometry">
            <Array as="points">
              <mxPoint x="505" y="539" />
            </Array>
          </mxGeometry>
        </mxCell>
        <mxCell id="1TI8qmT8zmZ3jhamWAwy-50" value="" style="ellipse;whiteSpace=wrap;html=1;aspect=fixed;" vertex="1" parent="1">
          <mxGeometry x="490" y="675" width="30" height="30" as="geometry" />
        </mxCell>
      </root>
    </mxGraphModel>
  </diagram>
</mxfile>
